<svg xmlns="http://www.w3.org/2000/svg" width="1024" height="1180" viewBox="0 0 1024 1180"><defs><radialGradient id="halo" cx="50%" cy="50%" r="50%"><stop offset="25%" stop-color="#fff" stop-opacity="1"/><stop offset="48%" stop-color="#fff" stop-opacity="0.55"/><stop offset="72%" stop-color="#fff" stop-opacity="0.18"/><stop offset="100%" stop-color="#fff" stop-opacity="0"/></radialGradient></defs><g transform="translate(222,70) scale(3.2222222222222223)"><line x1="90" y1="28" x2="90" y2="8" stroke="rgba(200,155,60,0.30)" stroke-width="1.2" stroke-linecap="round" transform="rotate(0 90 90)"/><line x1="90" y1="32" x2="90" y2="16" stroke="rgba(200,155,60,0.30)" stroke-width="0.8" stroke-linecap="round" transform="rotate(15 90 90)"/><line x1="90" y1="32" x2="90" y2="16" stroke="rgba(200,155,60,0.30)" stroke-width="0.8" stroke-linecap="round" transform="rotate(30 90 90)"/><line x1="90" y1="28" x2="90" y2="8" stroke="rgba(200,155,60,0.30)" stroke-width="1.2" stroke-linecap="round" transform="rotate(45 90 90)"/><line x1="90" y1="32" x2="90" y2="16" stroke="rgba(200,155,60,0.30)" stroke-width="0.8" stroke-linecap="round" transform="rotate(60 90 90)"/><line x1="90" y1="32" x2="90" y2="16" stroke="rgba(200,155,60,0.30)" stroke-width="0.8" stroke-linecap="round" transform="rotate(75 90 90)"/><line x1="90" y1="28" x2="90" y2="8" stroke="rgba(200,155,60,0.30)" stroke-width="1.2" stroke-linecap="round" transform="rotate(90 90 90)"/><line x1="90" y1="32" x2="90" y2="16" stroke="rgba(200,155,60,0.30)" stroke-width="0.8" stroke-linecap="round" transform="rotate(105 90 90)"/><line x1="90" y1="32" x2="90" y2="16" stroke="rgba(200,155,60,0.30)" stroke-width="0.8" stroke-linecap="round" transform="rotate(120 90 90)"/><line x1="90" y1="28" x2="90" y2="8" stroke="rgba(200,155,60,0.30)" stroke-width="1.2" stroke-linecap="round" transform="rotate(135 90 90)"/><line x1="90" y1="32" x2="90" y2="16" stroke="rgba(200,155,60,0.30)" stroke-width="0.8" stroke-linecap="round" transform="rotate(150 90 90)"/><line x1="90" y1="32" x2="90" y2="16" stroke="rgba(200,155,60,0.30)" stroke-width="0.8" stroke-linecap="round" transform="rotate(165 90 90)"/><line x1="90" y1="28" x2="90" y2="8" stroke="rgba(200,155,60,0.30)" stroke-width="1.2" stroke-linecap="round" transform="rotate(180 90 90)"/><line x1="90" y1="32" x2="90" y2="16" stroke="rgba(200,155,60,0.30)" stroke-width="0.8" stroke-linecap="round" transform="rotate(195 90 90)"/><line x1="90" y1="32" x2="90" y2="16" stroke="rgba(200,155,60,0.30)" stroke-width="0.8" stroke-linecap="round" transform="rotate(210 90 90)"/><line x1="90" y1="28" x2="90" y2="8" stroke="rgba(200,155,60,0.30)" stroke-width="1.2" stroke-linecap="round" transform="rotate(225 90 90)"/><line x1="90" y1="32" x2="90" y2="16" stroke="rgba(200,155,60,0.30)" stroke-width="0.8" stroke-linecap="round" transform="rotate(240 90 90)"/><line x1="90" y1="32" x2="90" y2="16" stroke="rgba(200,155,60,0.30)" stroke-width="0.8" stroke-linecap="round" transform="rotate(255 90 90)"/><line x1="90" y1="28" x2="90" y2="8" stroke="rgba(200,155,60,0.30)" stroke-width="1.2" stroke-linecap="round" transform="rotate(270 90 90)"/><line x1="90" y1="32" x2="90" y2="16" stroke="rgba(200,155,60,0.30)" stroke-width="0.8" stroke-linecap="round" transform="rotate(285 90 90)"/><line x1="90" y1="32" x2="90" y2="16" stroke="rgba(200,155,60,0.30)" stroke-width="0.8" stroke-linecap="round" transform="rotate(300 90 90)"/><line x1="90" y1="28" x2="90" y2="8" stroke="rgba(200,155,60,0.30)" stroke-width="1.2" stroke-linecap="round" transform="rotate(315 90 90)"/><line x1="90" y1="32" x2="90" y2="16" stroke="rgba(200,155,60,0.30)" stroke-width="0.8" stroke-linecap="round" transform="rotate(330 90 90)"/><line x1="90" y1="32" x2="90" y2="16" stroke="rgba(200,155,60,0.30)" stroke-width="0.8" stroke-linecap="round" transform="rotate(345 90 90)"/><circle cx="90" cy="90" r="78" fill="url(#halo)"/><circle cx="90" cy="90" r="60" fill="url(#halo)"/><circle cx="90" cy="90" r="48" fill="#fff"/><text x="90" y="86" text-anchor="middle" dominant-baseline="middle" font-family="Georgia, 'Times New Roman', serif" font-style="italic" font-size="15" font-weight="600" fill="#1E4D2B">Wafa</text><text x="90" y="103" text-anchor="middle" dominant-baseline="middle" font-family="Georgia, 'Times New Roman', serif" font-style="italic" font-size="15" font-weight="600" fill="#1E4D2B">Hajj</text><circle cx="90" cy="117" r="0.8" fill="#1E4D2B" opacity="0.5"/></g><text x="512" y="850" text-anchor="middle" font-family="Georgia, 'Times New Roman', serif" font-style="italic" font-weight="600" font-size="124" fill="#1E4D2B">Wafa Hajj</text><text x="512" y="932" text-anchor="middle" font-family="Tahoma, sans-serif" font-size="46" letter-spacing="14" fill="rgba(44,44,44,0.6)" direction="rtl">وفاء الحج</text></svg>